<?xml version="1.0" encoding="UTF-8" standalone="no"?>
<!-- Created with Inkscape (http://www.inkscape.org/) -->

<svg
   width="400"
   height="60"
   viewBox="0 0 400 60"
   version="1.1"
   id="svg1"
   inkscape:version="1.3.2 (091e20ef0f, 2023-11-25, custom)"
   sodipodi:docname="logo.svg"
   xmlns:inkscape="http://www.inkscape.org/namespaces/inkscape"
   xmlns:sodipodi="http://sodipodi.sourceforge.net/DTD/sodipodi-0.dtd"
   xmlns="http://www.w3.org/2000/svg"
   xmlns:svg="http://www.w3.org/2000/svg">
  <sodipodi:namedview
     id="namedview1"
     pagecolor="#505050"
     bordercolor="#ffffff"
     borderopacity="1"
     inkscape:showpageshadow="0"
     inkscape:pageopacity="0"
     inkscape:pagecheckerboard="1"
     inkscape:deskcolor="#d1d1d1"
     inkscape:document-units="px"
     inkscape:zoom="2.920351"
     inkscape:cx="228.3972"
     inkscape:cy="28.763666"
     inkscape:window-width="1920"
     inkscape:window-height="1023"
     inkscape:window-x="1920"
     inkscape:window-y="0"
     inkscape:window-maximized="1"
     inkscape:current-layer="layer1" />
  <defs
     id="defs1" />
  <g
     inkscape:label="Layer 1"
     inkscape:groupmode="layer"
     id="layer1">
    <path
       id="text1"
       style="font-size:53.3333px;font-family:'Solid Mono';-inkscape-font-specification:'Solid Mono, Normal';text-align:center;letter-spacing:-3px;text-anchor:middle;fill:#e4e4e7"
       d="M 40.480469 10.107422 L 40.480469 15.599609 L 46.027344 15.599609 L 46.027344 10.107422 L 40.480469 10.107422 z M 4.1738281 12.560547 L 4.1738281 49.892578 L 23.480469 49.892578 L 26.787109 46.533203 L 26.787109 33.039062 L 24.974609 31.226562 L 26.787109 29.414062 L 26.787109 15.919922 L 23.480469 12.560547 L 4.1738281 12.560547 z M 67.080078 12.560547 L 67.080078 22.373047 L 62.173828 22.373047 L 62.173828 25.414062 L 67.080078 25.414062 L 67.080078 46.533203 L 70.386719 49.892578 L 84.787109 49.892578 L 84.787109 46.853516 L 71.667969 46.853516 L 70.121094 45.306641 L 70.121094 25.414062 L 84.787109 25.414062 L 84.787109 22.373047 L 70.121094 22.373047 L 70.121094 12.560547 L 67.080078 12.560547 z M 178.17383 12.560547 L 178.17383 15.599609 L 187.93359 15.599609 L 187.93359 46.533203 L 191.29492 49.892578 L 200.78711 49.892578 L 200.78711 46.853516 L 192.57422 46.853516 L 191.02734 45.306641 L 191.02734 12.560547 L 178.17383 12.560547 z M 7.2148438 15.599609 L 22.201172 15.599609 L 23.748047 17.146484 L 23.748047 28.132812 L 22.201172 29.679688 L 7.2148438 29.679688 L 7.2148438 15.599609 z M 33.173828 22.373047 L 33.173828 25.414062 L 42.933594 25.414062 L 42.933594 46.853516 L 33.173828 46.853516 L 33.173828 49.892578 L 55.787109 49.892578 L 55.787109 46.853516 L 46.027344 46.853516 L 46.027344 22.373047 L 33.173828 22.373047 z M 94.480469 22.373047 L 91.173828 25.679688 L 91.173828 34.320312 L 94.480469 37.626953 L 109.20117 37.626953 L 110.74805 39.226562 L 110.74805 45.306641 L 109.20117 46.853516 L 91.173828 46.853516 L 91.173828 49.892578 L 110.48047 49.892578 L 113.78711 46.533203 L 113.78711 37.947266 L 110.48047 34.585938 L 95.761719 34.585938 L 94.214844 33.039062 L 94.214844 26.960938 L 95.761719 25.414062 L 113.78711 25.414062 L 113.78711 22.373047 L 94.480469 22.373047 z M 123.48047 22.373047 L 120.17383 25.679688 L 120.17383 46.533203 L 123.48047 49.892578 L 142.78711 49.892578 L 142.78711 46.853516 L 124.76172 46.853516 L 123.21484 45.306641 L 123.21484 26.960938 L 124.76172 25.414062 L 142.78711 25.414062 L 142.78711 22.373047 L 123.48047 22.373047 z M 149.17383 22.373047 L 149.17383 25.414062 L 167.20117 25.414062 L 168.74805 26.960938 L 168.74805 34.585938 L 152.48047 34.585938 L 149.17383 37.947266 L 149.17383 46.533203 L 152.48047 49.892578 L 171.78711 49.892578 L 171.78711 25.679688 L 168.48047 22.373047 L 149.17383 22.373047 z M 210.48047 22.373047 L 207.17383 25.679688 L 207.17383 46.533203 L 210.48047 49.892578 L 229.78711 49.892578 L 229.78711 46.853516 L 211.76172 46.853516 L 210.21484 45.306641 L 210.21484 26.960938 L 211.76172 25.414062 L 229.78711 25.414062 L 229.78711 22.373047 L 210.48047 22.373047 z M 7.2148438 32.773438 L 22.201172 32.773438 L 23.748047 34.320312 L 23.748047 45.306641 L 22.201172 46.853516 L 7.2148438 46.853516 L 7.2148438 32.773438 z M 153.76172 37.626953 L 168.74805 37.626953 L 168.74805 46.853516 L 153.76172 46.853516 L 152.21484 45.306641 L 152.21484 39.226562 L 153.76172 37.626953 z " />
  </g>
</svg>
